<?xml version="1.0" encoding="UTF-8" standalone="no"?>
<svg
   xmlns:dc="http://purl.org/dc/elements/1.1/"
   xmlns:cc="http://creativecommons.org/ns#"
   xmlns:rdf="http://www.w3.org/1999/02/22-rdf-syntax-ns#"
   xmlns:svg="http://www.w3.org/2000/svg"
   xmlns="http://www.w3.org/2000/svg"
   xmlns:sodipodi="http://sodipodi.sourceforge.net/DTD/sodipodi-0.dtd"
   xmlns:inkscape="http://www.inkscape.org/namespaces/inkscape"
   version="1.1"
   id="Calque_1"
   x="0px"
   y="0px"
   width="100px"
   height="100px"
   viewBox="0 0 100 100"
   enable-background="new 0 0 100 100"
   xml:space="preserve"
   inkscape:version="0.48.3.1 r9886"
   sodipodi:docname="btn_home_radical_pressed.svg"><metadata
   id="metadata11"><rdf:RDF><cc:Work
       rdf:about=""><dc:format>image/svg+xml</dc:format><dc:type
         rdf:resource="http://purl.org/dc/dcmitype/StillImage" /></cc:Work></rdf:RDF></metadata><defs
   id="defs9" /><sodipodi:namedview
   pagecolor="#ffffff"
   bordercolor="#666666"
   borderopacity="1"
   objecttolerance="10"
   gridtolerance="10"
   guidetolerance="10"
   inkscape:pageopacity="0"
   inkscape:pageshadow="2"
   inkscape:window-width="1855"
   inkscape:window-height="1056"
   id="namedview7"
   showgrid="false"
   inkscape:zoom="2.36"
   inkscape:cx="50"
   inkscape:cy="50"
   inkscape:window-x="65"
   inkscape:window-y="24"
   inkscape:window-maximized="1"
   inkscape:current-layer="Calque_1" />
<g
   id="g3"
   transform="matrix(1.105165,0,0,1.105165,-5.8094677,-3.8002439)">
	<path
   d="m 95.727,48.95 c -0.258,-4.681 -4.078,-8.275 -8.531,-8.028 -2.228,0.124 -4.209,1.389 -5.583,3.003 -0.642,0.562 -1.474,1.121 -2.375,1.173 -2.022,0.111 -3.78,-1.364 -4.183,-3.39 0.039,-5.578 0.481,-11.011 1.652,-16.028 -6.959,-0.778 -13.613,-0.617 -20.156,-0.089 -1.447,0.774 -2.355,2.316 -2.176,3.98 0.098,0.896 0.701,1.697 1.295,2.308 1.684,1.288 3.051,3.201 3.293,5.419 0.479,4.434 -2.91,8.438 -7.57,8.941 -4.66,0.507 -8.827,-2.679 -9.309,-7.113 -0.239,-2.218 0.744,-4.475 2.111,-6.095 0.371,-0.68 0.801,-1.618 0.712,-2.436 -0.183,-1.681 -1.425,-3 -3.028,-3.431 -5.901,0.69 -11.828,1.328 -17.928,1.48 0.648,5.095 1.111,10.022 1.426,14.886 -0.387,1.898 -1.982,3.331 -3.908,3.347 -0.822,0.007 -1.712,-0.514 -2.354,-0.95 -1.475,-1.524 -3.624,-2.725 -5.854,-2.706 -4.461,0.037 -8.045,3.866 -8.004,8.553 0.039,4.689 3.686,8.46 8.146,8.422 2.231,-0.02 4.269,-1.189 5.719,-2.737 0.667,-0.53 1.524,-1.051 2.427,-1.058 2.23,-0.02 4.054,1.865 4.072,4.209 l 0.169,-0.289 c -0.073,4.559 -0.281,9.145 -0.662,13.837 6.399,0.8 13.353,1.422 20.42,1.668 1.212,-0.722 2.017,-2.005 2.001,-3.464 -0.008,-0.903 -0.529,-1.76 -1.062,-2.426 -1.551,-1.447 -2.723,-3.483 -2.746,-5.714 -0.044,-4.459 3.721,-8.113 8.408,-8.157 4.688,-0.049 8.522,3.527 8.568,7.987 0.021,2.231 -1.178,4.38 -2.697,5.858 -0.436,0.642 -0.953,1.533 -0.947,2.355 0.016,1.512 0.904,2.82 2.206,3.497 6.222,-0.296 12.318,-0.987 17.985,-2.238 -0.396,-4.643 -0.924,-9.58 -1.367,-14.616 l 0.073,0.156 c -0.13,-2.34 1.569,-4.336 3.795,-4.461 0.821,-0.043 1.733,0.434 2.396,0.839 1.545,1.451 3.748,2.552 5.975,2.43 4.452,-0.247 7.85,-4.241 7.591,-8.922 z"
   id="path5"
   inkscape:connector-curvature="0" />
</g>
</svg>