<?xml version="1.0" encoding="UTF-8" standalone="no"?>
<!-- Generator: Adobe Illustrator 15.1.0, SVG Export Plug-In . SVG Version: 6.00 Build 0)  -->

<svg
   xmlns:dc="http://purl.org/dc/elements/1.1/"
   xmlns:cc="http://creativecommons.org/ns#"
   xmlns:rdf="http://www.w3.org/1999/02/22-rdf-syntax-ns#"
   xmlns:svg="http://www.w3.org/2000/svg"
   xmlns="http://www.w3.org/2000/svg"
   xmlns:xlink="http://www.w3.org/1999/xlink"
   xmlns:sodipodi="http://sodipodi.sourceforge.net/DTD/sodipodi-0.dtd"
   xmlns:inkscape="http://www.inkscape.org/namespaces/inkscape"
   version="1.1"
   id="Layer_1"
   x="0px"
   y="0px"
   width="100"
   height="100"
   viewBox="0 0 100 100"
   enable-background="new 0 0 55.973 100"
   xml:space="preserve"
   inkscape:version="0.48.3.1 r9886"
   sodipodi:docname="btn_home_examples_default.svg"
   inkscape:export-filename="/home/remo/git/makimono/net.makimono/res/drawable-hdpi/btn_home_examples_default.png"
   inkscape:export-xdpi="86.400002"
   inkscape:export-ydpi="86.400002"><metadata
   id="metadata17"><rdf:RDF><cc:Work
       rdf:about=""><dc:format>image/svg+xml</dc:format><dc:type
         rdf:resource="http://purl.org/dc/dcmitype/StillImage" /><dc:title /></cc:Work></rdf:RDF></metadata><defs
   id="defs15"><linearGradient
     id="linearGradient3794"><stop
       style="stop-color:#8c8c8c;stop-opacity:1;"
       offset="0"
       id="stop3796" /><stop
       style="stop-color:#3c3c3c;stop-opacity:1;"
       offset="1"
       id="stop3798" /></linearGradient><linearGradient
     inkscape:collect="always"
     xlink:href="#linearGradient3794"
     id="linearGradient3800"
     x1="28"
     y1="0.48699924"
     x2="28"
     y2="73.502991"
     gradientUnits="userSpaceOnUse"
     gradientTransform="translate(22.014,0)" /></defs><sodipodi:namedview
   pagecolor="#ffffff"
   bordercolor="#666666"
   borderopacity="1"
   objecttolerance="10"
   gridtolerance="10"
   guidetolerance="10"
   inkscape:pageopacity="0"
   inkscape:pageshadow="2"
   inkscape:window-width="1587"
   inkscape:window-height="748"
   id="namedview13"
   showgrid="false"
   inkscape:zoom="2"
   inkscape:cx="-106.804"
   inkscape:cy="50"
   inkscape:window-x="65"
   inkscape:window-y="24"
   inkscape:window-maximized="0"
   inkscape:current-layer="Layer_1" />
<path
   d="M 50,0 C 34.545,0 22.014,12.53 22.014,27.986 c 0,5.089 1.43,9.82 3.731,13.973 6.873,12.382 8.693,19.335 9.814,26.064 0.941,5.641 2.243,6.951 6.504,6.951 1.812,0 4.779,0 7.937,0 3.158,0 6.125,0 7.936,0 4.263,0 5.564,-1.312 6.505,-6.951 1.121,-6.729 2.942,-13.683 9.815,-26.064 2.302,-4.152 3.73,-8.884 3.73,-13.973 C 77.987,12.53 65.456,0 50,0 z"
   id="path3"
   style="fill:url(#linearGradient3800);fill-opacity:1;stroke-width:10;stroke-miterlimit:4;stroke-dasharray:none"
   inkscape:connector-curvature="0" />
<path
   d="M 60,77 H 40 c -0.828,0 -1.5,0.671 -1.5,1.5 v 1 c 0,0.829 0.672,1.5 1.5,1.5 h 20 c 0.828,0 1.5,-0.671 1.5,-1.5 v -1 C 61.5,77.671 60.828,77 60,77 z"
   id="path5"
   style="fill:#505050;fill-opacity:1;stroke-width:10;stroke-miterlimit:4;stroke-dasharray:none"
   inkscape:connector-curvature="0" />
<path
   d="M 60,83 H 40 c -0.828,0 -1.5,0.671 -1.5,1.5 v 1 c 0,0.829 0.672,1.5 1.5,1.5 h 20 c 0.828,0 1.5,-0.671 1.5,-1.5 v -1 C 61.5,83.671 60.828,83 60,83 z"
   id="path7"
   style="fill:#505050;fill-opacity:1;stroke-width:10;stroke-miterlimit:4;stroke-dasharray:none"
   inkscape:connector-curvature="0" />
<path
   d="M 60,89 H 40 c -0.828,0 -1.5,0.671 -1.5,1.5 v 1 c 0,0.829 0.672,1.5 1.5,1.5 h 20 c 0.828,0 1.5,-0.671 1.5,-1.5 v -1 C 61.5,89.671 60.828,89 60,89 z"
   id="path9"
   style="fill:#505050;fill-opacity:1;stroke-width:10;stroke-miterlimit:4;stroke-dasharray:none"
   inkscape:connector-curvature="0" />
<path
   d="m 42.5,95 h 15 c 0,3 -4,5 -7.5,5 -3.5,0 -7.5,-2 -7.5,-5 z"
   id="path11"
   style="fill:#505050;fill-opacity:1;stroke-width:10;stroke-miterlimit:4;stroke-dasharray:none"
   inkscape:connector-curvature="0" />
</svg>