<?xml version="1.0" encoding="UTF-8" standalone="no"?>
<svg
   xmlns:dc="http://purl.org/dc/elements/1.1/"
   xmlns:cc="http://creativecommons.org/ns#"
   xmlns:rdf="http://www.w3.org/1999/02/22-rdf-syntax-ns#"
   xmlns:svg="http://www.w3.org/2000/svg"
   xmlns="http://www.w3.org/2000/svg"
   xmlns:sodipodi="http://sodipodi.sourceforge.net/DTD/sodipodi-0.dtd"
   xmlns:inkscape="http://www.inkscape.org/namespaces/inkscape"
   version="1.1"
   id="Layer_1"
   x="0px"
   y="0px"
   width="77.2727272727px"
   height="100px"
   viewBox="0 0 612 792"
   enable-background="new 0 0 612 792"
   xml:space="preserve"
   inkscape:version="0.48.2 r9819"
   sodipodi:docname="btn_home_dictionary.svg"><metadata
   id="metadata13"><rdf:RDF><cc:Work
       rdf:about=""><dc:format>image/svg+xml</dc:format><dc:type
         rdf:resource="http://purl.org/dc/dcmitype/StillImage" /><dc:title></dc:title></cc:Work></rdf:RDF></metadata><defs
   id="defs11">
	
	
</defs><sodipodi:namedview
   pagecolor="#ffffff"
   bordercolor="#666666"
   borderopacity="1"
   objecttolerance="10"
   gridtolerance="10"
   guidetolerance="10"
   inkscape:pageopacity="0"
   inkscape:pageshadow="2"
   inkscape:window-width="1181"
   inkscape:window-height="609"
   id="namedview9"
   showgrid="false"
   inkscape:zoom="2.36"
   inkscape:cx="-54.372111"
   inkscape:cy="50"
   inkscape:window-x="460"
   inkscape:window-y="271"
   inkscape:window-maximized="0"
   inkscape:current-layer="Layer_1" />
<rect
   style="fill:none"
   id="rect5"
   height="305"
   width="275"
   y="264"
   x="163" /><path
   style="fill:#dd0000;fill-opacity:1"
   inkscape:connector-curvature="0"
   id="path7"
   d="M 351.299,295.801 V 403.199 H 270.9 c -11.8,0 -21.199,-8.2 -21.199,-20.4 V 289.8 c 0,-6.6 5.399,-12 12,-12 H 336.1 V 370 h -65.2 c -8.2,0 -14,4.4 -14,12.4 v 0.4 c 0,8 5.8,13.2 14,13.2 h 74.799 V 295.801 h 5.6 z M 336.1,380 h -64.4 c -1.8,0 -3.399,1 -3.399,2.6 0,2 1.6,3 3.399,3 h 64.4 V 380 z"
   inkscape:export-filename="/home/remo/git/makimono/net.makimono/res/drawable-hdpi/btn_home_dictionary_default.png"
   inkscape:export-xdpi="568.4256"
   inkscape:export-ydpi="568.4256" />
</svg>